<svg width="9" height="7" viewBox="0 0 9 7" fill="none" xmlns="http://www.w3.org/2000/svg">
<path d="M7.33858e-08 1.57665C0.00207184 1.79156 0.083649 1.99808 0.228997 2.15639L3.85236 6.11166C3.93382 6.20039 4.03283 6.27124 4.1431 6.3197C4.25338 6.36816 4.37252 6.39319 4.49297 6.39319C4.61343 6.39319 4.73257 6.36816 4.84284 6.3197C4.95312 6.27124 5.05213 6.20039 5.13358 6.11166L8.75695 2.15639C8.83735 2.07285 8.90024 1.97407 8.94191 1.86587C8.98357 1.75767 9.00318 1.64223 8.99958 1.52634C8.99598 1.41044 8.96923 1.29644 8.92092 1.19104C8.87261 1.08563 8.80371 0.990954 8.71827 0.91257C8.63283 0.834186 8.53258 0.77368 8.42341 0.734611C8.31424 0.695541 8.19836 0.678698 8.08259 0.685071C7.96682 0.691445 7.85349 0.720906 7.74927 0.771723C7.64505 0.822539 7.55205 0.893684 7.47573 0.980974L4.49297 4.24345L1.51022 0.98822C1.39175 0.859165 1.23706 0.768901 1.06641 0.729253C0.895771 0.689605 0.717132 0.702422 0.553896 0.766024C0.390661 0.829626 0.250442 0.941048 0.151606 1.08569C0.0527709 1.23034 -7.1881e-05 1.40147 7.33858e-08 1.57665Z" fill="black"/>
</svg>
