<svg id="left-arrow-55" width="14" height="22" viewBox="0 0 14 22" fill="none" xmlns="http://www.w3.org/2000/svg">
<path d="M11.2662 21.0515C10.7635 21.0467 10.2804 20.8559 9.91011 20.5159L0.658516 12.0406C0.45096 11.8501 0.28525 11.6185 0.171892 11.3606C0.0585345 11.1026 4.47062e-07 10.8239 4.59377e-07 10.5422C4.71693e-07 10.2604 0.0585345 9.98176 0.171892 9.72382C0.28525 9.46587 0.45096 9.2343 0.658517 9.04376L9.91011 0.568499C10.1055 0.380429 10.3366 0.233334 10.5897 0.13587C10.8428 0.0384068 11.1128 -0.00745915 11.3839 0.000969431C11.6549 0.00939992 11.9216 0.0719552 12.1681 0.184956C12.4147 0.297957 12.6361 0.45912 12.8195 0.65897C13.0028 0.858819 13.1444 1.09331 13.2357 1.34866C13.3271 1.60401 13.3665 1.87506 13.3516 2.14586C13.3367 2.41666 13.2678 2.68174 13.1489 2.92552C13.0301 3.16929 12.8637 3.38684 12.6595 3.56535L5.02836 10.5422L12.6425 17.519C12.9444 17.7961 13.1555 18.158 13.2483 18.5571C13.341 18.9563 13.311 19.3741 13.1623 19.7559C13.0135 20.1377 12.7529 20.4657 12.4145 20.6969C12.0762 20.9281 11.6759 21.0517 11.2662 21.0515Z" fill="black"/>
</svg>
